<?xml version="1.0" encoding="utf-8"?>
<!-- Generator: Adobe Illustrator 28.0.0, SVG Export Plug-In . SVG Version: 6.00 Build 0)  -->
<svg version="1.1" xmlns="http://www.w3.org/2000/svg" xmlns:xlink="http://www.w3.org/1999/xlink" x="0px" y="0px"
	 viewBox="0 0 100 100" style="enable-background:new 0 0 100 100;" xml:space="preserve">
<style type="text/css">
	.st0{display:none;}
	.st1{display:inline;opacity:0.25;fill:none;stroke:#000000;stroke-miterlimit:10;enable-background:new    ;}
	.st2{display:inline;fill:#4F80E2;stroke:#4F80E2;stroke-miterlimit:10;}
	.st3{fill:#FFFFFF;stroke:#FFFFFF;stroke-width:5;stroke-miterlimit:10;}
	.st4{fill:#FFFFFF;stroke:#FFFFFF;stroke-miterlimit:10;}
</style>
<g id="Layer_1">
	<g id="Layer_1_00000025434608665564069260000001929750103829726861_" class="st0">
		<path class="st1" d="M31.1,25.4c-1.9,1-3.6,2.3-4.9,4.1c-1.2,1.7-1.9,3.6-2.5,5.6c-3.4,11.5-3.5,24.7,2.8,34.9
			c1,1.7,2.3,3.3,3.8,4.6c1.8,1.5,3.9,2.5,6.1,3.5c4.3,1.9,8.8,3.6,13.3,5.1c4.3,1.4,8.6,2.5,13.1,2.8s9.1-0.3,13.1-2.3
			c6.3-3.2,10.6-9.8,12.1-16.7s0.3-14.3-2.1-21c-0.9-2.6-2.1-5.1-3.8-7.2c-1.4-1.7-3.2-3.1-5.1-4.3c-4.9-3.1-10.5-5.1-16-7
			c-3.7-1.3-7.4-2.2-11-3.5c-3.8-1.3-8.1-1.6-12.1-0.8C35.5,23.4,33.2,24.2,31.1,25.4z"/>
		<path class="st1" d="M35,26.1c3.9,0.1,7.7,0.5,11.5,1.3c0.4,1.4-0.6,2.9-1.6,4c-2.9,3.4-6.1,6.8-9.7,9.6c-1.8,1.4-3.7,2.6-5.7,3.6
			c-1.2,0.6-1.4,0.6-1.7,2c-0.3,1.2-0.6,2.4-0.8,3.6c-0.9,4.2-1.9,8.6-1.1,12.9c0.6,3.2,2.1,6.3,2.6,9.5c0,0.3,0.1,0.6-0.1,0.8
			c-0.1,0.2-0.4,0.3-0.6,0.3c-2.4,0.7-4.9,1.1-7.4,1.2c-0.8,0-1.7,0-2.5-0.3c-2.5-0.9-3.4-3.9-3.8-6.5c-0.6-4.7-0.5-9.4-0.7-14.1
			c-0.3-6.5-1.3-13.3,1.9-19"/>
		<path class="st1" d="M24,17.5c-2.3-1.3-2.8-4.6-5.2-5.8c-1.4-0.7-3.2-0.4-4.5,0.6c-1.3,0.9-2.1,2.3-2.7,3.8
			c-0.9,2.3-1.1,4.9-1.2,7.4c-0.1,3.6,0.2,7.5,2.3,10.5"/>
		<path class="st1" d="M25,16c2-2.1,4.5-3.8,7.1-5.1c1.5-0.7,3-1.4,4.7-1.4c1.3,0,2.7,0.4,4,0.8c1.3,0.4,2.7,1,3.4,2.2
			c0.5,0.9,0.5,2,0.5,3.1c0,0.6,0,1.2-0.2,1.9c-0.4,1.5-1.6,2.6-2.9,3.5c-1.3,0.8-2.8,1.5-3.9,2.5s-2.1,2.5-1.8,4.1"/>
		<path class="st1" d="M33.3,13.5c-0.7,0.6-1,1.5-0.9,2.3c0,0.2,0,0.3,0.2,0.4c0.1,0.1,0.2,0.1,0.3,0.2c0.5,0.2,1,0.2,1.5,0.2
			c0.9,0,1.8,0.1,2.6-0.1c0.9-0.2,1.7-0.7,2.2-1.4c0.2-0.4,0.4-0.9,0.3-1.3c-0.1-0.5-0.5-1-1-1.2s-1-0.4-1.5-0.5"/>
		<path class="st1" d="M36.8,51.2c-0.1,3.3,1.1,6.6,2.4,9.6c0.5,1.2,1.1,2.5,2.2,3.5c1.3,1.2,3.3,1.6,5,1.1"/>
		<path class="st1" d="M48.8,52.6c0.6,2.9,1.2,5.9,3,8.2c0.9,1.2,2.3,2.2,3.7,2c1-0.2,2.1-1.2,2.7-1.9s1.1-1.7,1.1-2.7"/>
		<path class="st1" d="M57.8,48.3c1.1,1.8,2.3,3.5,2.9,5.5s0.8,4.2-0.2,6.1"/>
		<path class="st1" d="M68,42.4c4.5,5.3,9.4,10.4,14.5,15.1"/>
		<path class="st1" d="M81.1,45.2c-2.9,6.2-5.6,12.6-8.1,19"/>
		<path class="st1" d="M59.8,32.1c0.6,3.1-2,6-1.8,9.1c0.2,2.5,2.2,4.6,4.5,5.5s4.9,1,7.4,1.1c0.4,0,0.8,0,1.1-0.2
			c0.2-0.1,0.4-0.4,0.5-0.6c0.8-1.3,1.3-2.9,2.2-4.2c0.9-1.3,2.2-2.5,3.8-2.4c1.6,0,2.8,1.2,4.1,2.1s3.3,1.3,4.3,0.1"/>
		<path class="st1" d="M49.1,86.9c-0.9-1-1.1-2.4-1.3-3.7c-0.4-2.8-0.7-5.8-0.1-8.6s2.1-5.6,4.6-6.9c1.9-1,4.1-1.2,6.2-1.2
			c1.8,0,3.8,0.1,5.3,1c2.7,1.5,4,5.1,6.9,6.1c1.7,0.6,3.6,0.1,5.4-0.5c1.8-0.6,3.7-1.4,4.9-2.9c0.6-0.7,1-1.6,1.5-2.4
			s1.3-1.4,2.2-1.6c1.1-0.1,2.1,0.6,2.8,1.3c0.7,0.8,1.3,1.7,2.1,2.4"/>
		<path class="st1" d="M31.2,49.3c1.3-0.1,2.5,0.4,3.5,1.2c1,0.8,1.7,1.9,2.3,3c1,2,1.7,4.5,0.8,6.6c-0.8,1.9-2.7,3.2-3.9,4.9
			c-1.4,2.1-1.6,4.9-0.4,7.2c0.1,0.2,0.2,0.3,0.2,0.5c0,0.2-0.2,0.3-0.3,0.4c-1.2,1.2-3.1,1.7-4.7,1.3"/>
		<path class="st1" d="M23.4,42.7c0,0.3,0,0.7,0.2,1c0.2,0.3,0.7,0.5,1.1,0.5c1.9,0.3,3.9,0.4,5.8,0.2c0-2.3,0-4.6,0-7
			c0-2.3,0-4.6,0.1-6.9c0.1-2.3,0.4-4.6,0.5-6.8c0-0.5,0.2-2.8-0.4-2.9c-0.4-0.1-1.4,2.2-1.6,2.5c-2.1,3.8-3.6,7.9-4.5,12.1
			C23.9,37.9,23.6,40.3,23.4,42.7z"/>
		<path class="st1" d="M17.9,55.7c0,0.1,0,0.2,0,0.3c0.1,0.1,0.2,0.2,0.4,0.2c1.5,0.2,2.9,0.1,4.4-0.2c0.1,0,0.3-0.1,0.4-0.2
			c0.1-0.1,0.1-0.2,0.1-0.4c0-1.3,0-2.6-0.3-3.8c0-0.2-0.1-0.4-0.2-0.5c-0.1-0.1-0.3-0.2-0.5-0.2c-1.2-0.3-2.7-0.8-3.4,0.3
			C18.1,52.3,18,54.4,17.9,55.7z"/>
		<path class="st1" d="M48.4,53.2c0.5,1.5,0.8,3.1,0.9,4.7c0.1,0.8,0.1,1.6,0,2.5c-0.3,2.3-1.8,4.7-4,5.4"/>
	</g>
	<g id="Layer_6" class="st0">
		<path class="st2" d="M46.5,66c1.8,0,3.6,0,5.4,0l0.2-4.3c-3.4-0.1-6.7-0.2-10.1-0.3c-0.3,1.8-0.5,3.4-0.6,4.6
			c-0.3,3.5-0.5,5.2-0.3,6.9c0.3,2.4,0.9,3.5,0.4,4c-0.7,0.6-2.3-0.1-3.4-0.8c-3.5-2.3-5.5-8.1-5.2-13.4c0.1-2.1,0.6-4.3-0.8-5.4
			c-0.6-0.5-1.6-0.7-2.3-0.5c-4,1.3,0.2,19.8-2.1,20.4c-1.9,0.6-9.7-10.9-9.4-23.9c0.2-9.5,4.8-18.6,5.4-19.8
			c0.7-1.5,1.4-2.4,1.8-3.2c-4.6-0.1-7.3-0.2-11.9-0.3c-0.7,1.2-1.4,2.5-2.1,3.8c1.5,0,2.9,0.1,4.4,0.1C13.1,39.5,9.8,48.4,11,59
			c1.9,16.1,13.1,25.9,18.7,29c1.3,0.7,4.5,2.5,6.3,1.2c1.8-1.3,1.1-5.1,1-6c-0.6-3.2-2.3-5.7-2.4-5.6c-0.1,0.1,1.7,5.6,6,9.8
			c1.2,1.1,4.7,3.4,9.4,4c4.7,0.6,11.9-1.6,11.9-3c0-0.6-0.1-0.9-0.3-1.2c-1.2-1.4-3.2-0.6-6.6-1.6c-1-0.3-3.1-1-5-2.8
			c0,0-1.4-1.3-2.4-3.3C44.9,74.5,46.2,67.2,46.5,66z"/>
		<path class="st2" d="M6.5,13.6"/>
	</g>
</g>
<g id="Layer_2">
	<g id="Layer_7">
		<g>
			<path class="st3" d="M15,81.6c-2.5-3.5-6.1-9.6-7.7-18c-2.7-14.5,2.5-26,4.6-30c1.7-0.1,3.4-0.1,5.1-0.2
				c-2.8,7-3.8,13.2-4.2,17.4c-0.5,5.1-0.9,10.5,1.3,16.9c1.2,3.3,2.7,5.9,3.8,7.6h0.1c0,0.4,0,0.7,0.1,0.7
				c0.3,0.1,1.4-3.8,3.2-11.4l5.2-21.3h5.2l4.7,21.4c1.1,5,2,6.1,2.6,10.6h0.1c0.8-4.6,1.9-9.3,3.1-14.6l0.3-1.5h5.1l-6.2,22.4h-5.2
				l-4.8-18.1c-1.2-5.4-2.1-13.4-2.5-13.8h-0.1c-0.8,0.3-1.6,8.3-3,13.8l-5.6,18.1H15z"/>
		</g>
	</g>
	<g id="Layer_3">
		<path class="st4" d="M15.5,18.8C15.5,18.8,15.5,18.8,15.5,18.8c4.8-1.6,29.3-8.5,47.2,5.1c10,7.6,14.9,19.3,17.8,26.4
			c3.9,9.4,5.3,17.7,5.9,23.4c0.8,5.1-3,9.3-7,9.3c-3.4,0-6.8-3.1-7.2-7.3c-0.8-4.9-2.2-11.9-4.9-20.1c-3.1-9.7-5.9-18.2-11.1-24.4
			C44.6,17.5,22.6,18.3,15.5,18.8z"/>
	</g>
	<g id="Layer_5">
		<path class="st4" d="M55,53.5c-5.2-0.1-10.4-0.3-15.6-0.4c11.7-12.4,23.4-24.8,35-37.2c-1,0-2-0.1-3-0.1c0.6-0.6,1.2-1.2,1.8-1.8
			c4.7,0.2,9.3,0.4,14,0.6c-11.2,12.3-22.3,24.6-33.5,37c0.9,0,1.8,0.1,2.8,0.2C56,52.3,55.5,52.9,55,53.5z"/>
	</g>
	<g id="Layer_4">
		<path class="st4" d="M53.4,57.9c0.3,1.2,0.6,2.4,1,3.5c0,0,17.8,13.1,17.7,12.8c0,0,0.1,0,0.1,0l13.4-3.9c0,0,0.1-0.1,0.1-0.1
			l6.1-17.7l0.2-4.8l-0.2-0.1c-2.6,4.7-5.2,9.4-7.8,14.1c0,0,0,0.1-0.1,0.1l-13.6,4.4c0,0-0.1,0-0.1,0l-16.6-8.7
			C53.5,57.7,53.5,57.8,53.4,57.9z"/>
	</g>
</g>
</svg>
